<svg width="29" height="29" viewBox="0 0 29 29" fill="none" xmlns="http://www.w3.org/2000/svg">
<path d="M26.1943 21.8734C25.2018 20.8734 22.798 19.4141 21.6317 18.826C20.1129 18.0611 19.9879 17.9986 18.7942 18.8854C17.9979 19.4772 17.4685 20.006 16.5366 19.8072C15.6047 19.6085 13.5796 18.4879 11.8065 16.7205C10.0333 14.9531 8.84766 12.8694 8.64828 11.9407C8.4489 11.012 8.98641 10.4889 9.57268 9.69079C10.3989 8.56584 10.3364 8.37835 9.63018 6.85966C9.07954 5.67846 7.57763 3.29732 6.57385 2.30986C5.50008 1.24928 5.50008 1.43677 4.80818 1.72426C4.2449 1.96124 3.70451 2.24931 3.19377 2.58485C2.19375 3.24919 1.63873 3.80104 1.2506 4.63038C0.862464 5.45972 0.688085 7.40402 2.69251 11.0451C4.69693 14.6862 6.10322 16.548 9.01391 19.4504C11.9246 22.3527 14.1628 23.9133 17.4347 25.7482C21.4823 28.015 23.0349 27.5731 23.8668 27.1857C24.6987 26.7982 25.2531 26.2482 25.9187 25.2482C26.2551 24.7384 26.5439 24.1986 26.7812 23.6358C27.0694 22.9465 27.2569 22.9465 26.1943 21.8734Z" stroke="#40DDB6" stroke-width="2" stroke-miterlimit="10"/>
</svg>
