<svg width="43" height="44" viewBox="0 0 43 44" fill="none" xmlns="http://www.w3.org/2000/svg">
<path d="M8.0625 22.3506V7.56934C8.0625 7.21295 8.20407 6.87116 8.45608 6.61916C8.70808 6.36716 9.04987 6.22559 9.40625 6.22559H25.5312L34.9375 15.6318V22.3506" stroke="white" stroke-width="2" stroke-linecap="round" stroke-linejoin="round"/>
<path d="M25.5312 6.22559V15.6318H34.9375" stroke="white" stroke-width="2" stroke-linecap="round" stroke-linejoin="round"/>
<path d="M8.0625 34.4443H10.75C11.4628 34.4443 12.1463 34.1612 12.6503 33.6572C13.1544 33.1532 13.4375 32.4696 13.4375 31.7568C13.4375 31.0441 13.1544 30.3605 12.6503 29.8565C12.1463 29.3525 11.4628 29.0693 10.75 29.0693H8.0625V37.1318" stroke="white" stroke-width="2" stroke-linecap="round" stroke-linejoin="round"/>
<path d="M36.2812 29.0693H31.5781V37.1318" stroke="white" stroke-width="2" stroke-linecap="round" stroke-linejoin="round"/>
<path d="M35.6094 33.7725H31.5781" stroke="white" stroke-width="2" stroke-linecap="round" stroke-linejoin="round"/>
<path d="M21.5 37.1318C22.5692 37.1318 23.5945 36.7071 24.3505 35.9511C25.1065 35.1951 25.5312 34.1697 25.5312 33.1006C25.5312 32.0314 25.1065 31.0061 24.3505 30.2501C23.5945 29.4941 22.5692 29.0693 21.5 29.0693H19.1484V37.1318H21.5Z" stroke="white" stroke-width="2" stroke-linecap="round" stroke-linejoin="round"/>
</svg>
