<svg width="43" height="44" viewBox="0 0 43 44" fill="none" xmlns="http://www.w3.org/2000/svg">
<path d="M8.0625 22.3506V7.56934C8.0625 7.21295 8.20407 6.87116 8.45608 6.61916C8.70808 6.36716 9.04987 6.22559 9.40625 6.22559H25.5312L34.9375 15.6318V22.3506" stroke="white" stroke-width="2" stroke-linecap="round" stroke-linejoin="round"/>
<path d="M25.5312 6.22559V15.6318H34.9375" stroke="white" stroke-width="2" stroke-linecap="round" stroke-linejoin="round"/>
<path d="M28.2188 34.4443H30.9062C31.619 34.4443 32.3026 34.1612 32.8066 33.6572C33.3106 33.1532 33.5938 32.4696 33.5938 31.7568C33.5938 31.0441 33.3106 30.3605 32.8066 29.8565C32.3026 29.3525 31.619 29.0693 30.9062 29.0693H28.2188V37.1318" stroke="white" stroke-width="2" stroke-linecap="round" stroke-linejoin="round"/>
<path d="M21.5 29.0693V37.1318" stroke="white" stroke-width="2" stroke-linecap="round" stroke-linejoin="round"/>
<path d="M9.40625 29.0693H14.7812L9.40625 37.1318H14.7812" stroke="white" stroke-width="2" stroke-linecap="round" stroke-linejoin="round"/>
</svg>
