<svg width="11" height="11" viewBox="0 0 11 11" fill="none" xmlns="http://www.w3.org/2000/svg">
<path d="M9.25579 2.75207C9.04456 2.75207 8.83808 2.69176 8.66245 2.57875C8.48682 2.46574 8.34993 2.30512 8.26909 2.1172C8.18826 1.92928 8.16711 1.72249 8.20832 1.52299C8.24953 1.32349 8.35125 1.14024 8.50061 0.996414C8.64997 0.852584 8.84027 0.754635 9.04744 0.714952C9.25461 0.675269 9.46935 0.695636 9.6645 0.773476C9.85965 0.851316 10.0264 0.983134 10.1438 1.15226C10.2612 1.32139 10.3238 1.52022 10.3238 1.72363C10.3241 1.85877 10.2967 1.99263 10.2431 2.11754C10.1895 2.24245 10.1109 2.35594 10.0117 2.4515C9.91242 2.54705 9.79457 2.6228 9.66485 2.67438C9.53514 2.72596 9.39613 2.75236 9.25579 2.75207V2.75207ZM4.62794 3.43745C5.19124 3.43745 5.7419 3.59831 6.21027 3.89967C6.67864 4.20103 7.04369 4.62938 7.25926 5.13053C7.47482 5.63168 7.53122 6.18313 7.42133 6.71514C7.31143 7.24716 7.04018 7.73585 6.64186 8.11942C6.24355 8.50298 5.73606 8.76419 5.18358 8.87002C4.6311 8.97584 4.05844 8.92153 3.53801 8.71394C3.01759 8.50636 2.57277 8.15483 2.25982 7.70381C1.94686 7.25278 1.77983 6.72253 1.77983 6.18008C1.78063 5.45293 2.08096 4.75579 2.61491 4.24161C3.14886 3.72744 3.87282 3.43823 4.62794 3.43745V3.43745ZM4.62794 2.06632C3.78302 2.06632 2.95708 2.30759 2.25455 2.75962C1.55203 3.21164 1.00448 3.85412 0.681144 4.60582C0.357808 5.35751 0.273209 6.18465 0.438044 6.98264C0.602879 7.78063 1.00975 8.51363 1.60719 9.08895C2.20464 9.66427 2.96584 10.0561 3.79452 10.2148C4.6232 10.3735 5.48215 10.2921 6.26276 9.9807C7.04336 9.66934 7.71055 9.14207 8.17996 8.46557C8.64938 7.78906 8.89992 6.99371 8.89992 6.18008C8.89992 5.08905 8.44984 4.0427 7.64869 3.27122C6.84754 2.49974 5.76094 2.06632 4.62794 2.06632V2.06632Z" fill="white"/>
</svg>
