<svg width="201" height="39" viewBox="0 0 201 39" fill="none" xmlns="http://www.w3.org/2000/svg">
<path d="M71.5059 10.825L67.2809 28.5H61.9809L59.1559 16.675L56.3059 28.5H51.0059L46.7809 10.825H51.4309L53.7059 23.625L56.8059 10.825H61.4809L64.5809 23.625L66.8809 10.825H71.5059ZM82.6004 14.4C84.2004 14.4 85.4671 14.9333 86.4004 16C87.3504 17.0667 87.8254 18.5333 87.8254 20.4V28.5H83.5504V20.9C83.5504 19.9667 83.3004 19.2417 82.8004 18.725C82.3171 18.1917 81.6671 17.925 80.8504 17.925C79.9837 17.925 79.2921 18.2 78.7754 18.75C78.2754 19.3 78.0254 20.0833 78.0254 21.1V28.5H73.7504V10H78.0254V17.1C78.4254 16.2667 79.0171 15.6083 79.8004 15.125C80.6004 14.6417 81.5337 14.4 82.6004 14.4ZM90.2449 10.625C90.2449 9.975 90.4783 9.44167 90.9449 9.025C91.4116 8.59167 92.0283 8.375 92.7949 8.375C93.5616 8.375 94.1783 8.59167 94.6449 9.025C95.1116 9.44167 95.3449 9.975 95.3449 10.625C95.3449 11.2583 95.1116 11.7917 94.6449 12.225C94.1783 12.6417 93.5616 12.85 92.7949 12.85C92.0283 12.85 91.4116 12.6417 90.9449 12.225C90.4783 11.7917 90.2449 11.2583 90.2449 10.625ZM94.9199 14.55V28.5H90.6449V14.55H94.9199ZM105.771 24.825V28.5H103.846C102.213 28.5 100.938 28.1 100.021 27.3C99.1215 26.4833 98.6715 25.1417 98.6715 23.275V18.15H96.7965V14.55H98.6715V11.125H102.946V14.55H105.746V18.15H102.946V23.35C102.946 23.9 103.055 24.2833 103.271 24.5C103.505 24.7167 103.888 24.825 104.421 24.825H105.771ZM121.424 21.15C121.424 21.5 121.383 21.8833 121.299 22.3H111.624C111.674 23.35 111.941 24.1083 112.424 24.575C112.908 25.025 113.524 25.25 114.274 25.25C114.908 25.25 115.433 25.0917 115.849 24.775C116.266 24.4583 116.541 24.05 116.674 23.55H121.199C121.016 24.5333 120.616 25.4167 119.999 26.2C119.383 26.9667 118.599 27.575 117.649 28.025C116.699 28.4583 115.641 28.675 114.474 28.675C113.108 28.675 111.891 28.3917 110.824 27.825C109.774 27.2417 108.949 26.4083 108.349 25.325C107.749 24.2417 107.449 22.975 107.449 21.525C107.449 20.0583 107.741 18.7917 108.324 17.725C108.924 16.6417 109.758 15.8167 110.824 15.25C111.891 14.6667 113.108 14.375 114.474 14.375C115.858 14.375 117.074 14.6583 118.124 15.225C119.174 15.7917 119.983 16.5917 120.549 17.625C121.133 18.6417 121.424 19.8167 121.424 21.15ZM117.099 20.5C117.116 19.5833 116.866 18.9 116.349 18.45C115.849 17.9833 115.224 17.75 114.474 17.75C113.691 17.75 113.041 17.9833 112.524 18.45C112.008 18.9167 111.716 19.6 111.649 20.5H117.099ZM131.728 10.65C133.978 10.65 135.836 11.2417 137.303 12.425C138.786 13.6083 139.744 15.2083 140.178 17.225H135.653C135.319 16.4083 134.803 15.7667 134.103 15.3C133.419 14.8333 132.603 14.6 131.653 14.6C130.403 14.6 129.394 15.0583 128.628 15.975C127.861 16.8917 127.478 18.1167 127.478 19.65C127.478 21.1833 127.861 22.4083 128.628 23.325C129.394 24.225 130.403 24.675 131.653 24.675C132.603 24.675 133.419 24.4417 134.103 23.975C134.803 23.5083 135.319 22.875 135.653 22.075H140.178C139.744 24.075 138.786 25.675 137.303 26.875C135.836 28.0583 133.978 28.65 131.728 28.65C130.011 28.65 128.503 28.275 127.203 27.525C125.903 26.7583 124.894 25.6917 124.178 24.325C123.478 22.9583 123.128 21.4 123.128 19.65C123.128 17.9 123.478 16.3417 124.178 14.975C124.894 13.6083 125.903 12.55 127.203 11.8C128.503 11.0333 130.011 10.65 131.728 10.65ZM149.099 14.375C150.482 14.375 151.715 14.6667 152.799 15.25C153.899 15.8167 154.757 16.6417 155.374 17.725C156.007 18.8083 156.324 20.075 156.324 21.525C156.324 22.975 156.007 24.2417 155.374 25.325C154.757 26.4083 153.899 27.2417 152.799 27.825C151.715 28.3917 150.482 28.675 149.099 28.675C147.715 28.675 146.474 28.3917 145.374 27.825C144.274 27.2417 143.407 26.4083 142.774 25.325C142.157 24.2417 141.849 22.975 141.849 21.525C141.849 20.075 142.157 18.8083 142.774 17.725C143.407 16.6417 144.274 15.8167 145.374 15.25C146.474 14.6667 147.715 14.375 149.099 14.375ZM149.099 18.075C148.282 18.075 147.59 18.375 147.024 18.975C146.474 19.5583 146.199 20.4083 146.199 21.525C146.199 22.6417 146.474 23.4917 147.024 24.075C147.59 24.6583 148.282 24.95 149.099 24.95C149.915 24.95 150.599 24.6583 151.149 24.075C151.699 23.4917 151.974 22.6417 151.974 21.525C151.974 20.4083 151.699 19.5583 151.149 18.975C150.599 18.375 149.915 18.075 149.099 18.075ZM178.294 14.375C179.36 14.375 180.277 14.6167 181.044 15.1C181.81 15.5833 182.377 16.2417 182.744 17.075V14.55H186.994V28.5H182.744V25.975C182.377 26.8083 181.81 27.4667 181.044 27.95C180.277 28.4333 179.36 28.675 178.294 28.675C177.144 28.675 176.11 28.3917 175.194 27.825C174.294 27.2417 173.577 26.4083 173.044 25.325C172.527 24.2417 172.269 22.975 172.269 21.525C172.269 20.0583 172.527 18.7917 173.044 17.725C173.577 16.6417 174.294 15.8167 175.194 15.25C176.11 14.6667 177.144 14.375 178.294 14.375ZM179.669 18.125C178.752 18.125 178.01 18.425 177.444 19.025C176.894 19.625 176.619 20.4583 176.619 21.525C176.619 22.5917 176.894 23.425 177.444 24.025C178.01 24.625 178.752 24.925 179.669 24.925C180.569 24.925 181.302 24.6167 181.869 24C182.452 23.3833 182.744 22.5583 182.744 21.525C182.744 20.475 182.452 19.65 181.869 19.05C181.302 18.4333 180.569 18.125 179.669 18.125ZM194.212 17.175C194.745 16.325 195.429 15.65 196.262 15.15C197.112 14.65 198.029 14.4 199.012 14.4V18.975H197.787C196.654 18.975 195.77 19.2167 195.137 19.7C194.52 20.1833 194.212 21 194.212 22.15V28.5H189.937V14.55H194.212V17.175Z" fill="white"/>
<path d="M162.815 10V28.5H158.54V10H162.815ZM170.042 10V28.5H165.767V10H170.042Z" fill="#40DDB6"/>
<path d="M14.3814 6.5H8.50235L25.2666 35.5L28.2062 30.4152L14.3814 6.5Z" fill="#40DDB6"/>
<path d="M5.88496 6.5H0.00585938L16.5565 35.1299L19.4142 29.9051L5.88496 6.5Z" fill="#40DDB6"/>
<path d="M32.5366 23.1948L36.3107 16.6629H30.4333L29.597 18.11L25.4389 10.9196H39.6259L42.1765 6.5H17.0059L29.6003 28.2863L32.5382 23.1981L32.5366 23.1948Z" fill="#6B77E5"/>
</svg>
