<svg width="23" height="33" viewBox="0 0 23 33" fill="none" xmlns="http://www.w3.org/2000/svg">
<path d="M11.0059 1.5C5.48503 1.5 1.00586 5.92738 1.00586 11.3803C1.00586 17.6546 7.67253 27.5977 10.1204 31.032C10.2221 31.177 10.3552 31.2949 10.5091 31.3763C10.663 31.4576 10.8332 31.5 11.0059 31.5C11.1785 31.5 11.3487 31.4576 11.5026 31.3763C11.6565 31.2949 11.7897 31.177 11.8913 31.032C14.3392 27.5991 21.0059 17.6597 21.0059 11.3803C21.0059 5.92738 16.5267 1.5 11.0059 1.5Z" stroke="#40DDB6" stroke-width="2" stroke-linecap="round" stroke-linejoin="round"/>
<path d="M11.0059 16.5C13.215 16.5 15.0059 14.7091 15.0059 12.5C15.0059 10.2909 13.215 8.5 11.0059 8.5C8.79672 8.5 7.00586 10.2909 7.00586 12.5C7.00586 14.7091 8.79672 16.5 11.0059 16.5Z" stroke="#40DDB6" stroke-width="2" stroke-linecap="round" stroke-linejoin="round"/>
</svg>
