<svg width="18" height="18" viewBox="0 0 18 18" fill="none" xmlns="http://www.w3.org/2000/svg">
<path d="M9.24988 0.5C4.45567 0.5 0.568359 4.38557 0.568359 9.17765C0.568359 12.7301 2.70773 15.7827 5.76565 17.127C5.74239 16.5227 5.76177 15.7944 5.9168 15.1358C6.08345 14.4307 7.03299 10.4057 7.03299 10.4057C7.03299 10.4057 6.75394 9.85172 6.75394 9.03431C6.75394 7.74816 7.49807 6.78742 8.42824 6.78742C9.21888 6.78742 9.59869 7.38013 9.59869 8.08907C9.59869 8.88323 9.09098 10.0687 8.83131 11.1689C8.61427 12.0909 9.29251 12.8385 10.2033 12.8385C11.8466 12.8385 12.955 10.7272 12.955 8.22466C12.955 6.32255 11.6722 4.90081 9.3429 4.90081C6.71131 4.90081 5.06802 6.8649 5.06802 9.05756C5.06802 9.81297 5.29281 10.3476 5.64162 10.7582C5.80053 10.948 5.82378 11.0255 5.76565 11.2425C5.72301 11.4013 5.63 11.7848 5.58736 11.9398C5.52923 12.1606 5.35095 12.2381 5.15329 12.1567C3.9402 11.6608 3.37435 10.336 3.37435 8.84061C3.37435 6.37678 5.45559 3.42096 9.57931 3.42096C12.893 3.42096 15.075 5.81893 15.075 8.39124C15.075 11.7964 13.1798 14.3377 10.3893 14.3377C9.45142 14.3377 8.57164 13.8303 8.26933 13.2569C8.26933 13.2569 7.7655 15.2559 7.65698 15.6433C7.47482 16.3135 7.11438 16.9798 6.78495 17.5028C7.58407 17.7384 8.41284 17.8584 9.24601 17.8592C14.0402 17.8592 17.9275 13.9736 17.9275 9.18152C17.9275 4.38945 14.0441 0.5 9.24988 0.5Z" fill="white"/>
</svg>
