<svg width="19" height="16" viewBox="0 0 19 16" fill="none" xmlns="http://www.w3.org/2000/svg">
<path d="M18.5683 2.5917C17.8815 2.89011 17.1548 3.08671 16.4113 3.17528C17.1927 2.71772 17.7804 1.99079 18.064 1.13083C17.3252 1.56284 16.5183 1.86595 15.6778 2.02719C15.3239 1.65626 14.8982 1.36118 14.4267 1.15988C13.9552 0.958577 13.4477 0.85526 12.935 0.856208C10.8592 0.856208 9.17944 2.5116 9.17944 4.55223C9.17796 4.83608 9.21049 5.11908 9.27632 5.39519C7.78787 5.32541 6.33038 4.94571 4.99708 4.28037C3.66379 3.61504 2.48405 2.67873 1.53335 1.53133C1.19982 2.0936 1.02343 2.73513 1.02262 3.38888C1.02262 4.67048 1.69126 5.80332 2.7009 6.467C2.10272 6.4528 1.51679 6.29448 0.992868 6.00547V6.05124C0.992868 7.84395 2.28972 9.33533 4.00614 9.6748C3.68337 9.76084 3.35076 9.80444 3.01672 9.80448C2.77969 9.8049 2.5432 9.7819 2.3107 9.73583C2.78786 11.2043 4.17664 12.2723 5.82173 12.3028C4.48498 13.333 2.84379 13.8898 1.15612 13.8858C0.856553 13.8853 0.557266 13.8675 0.259766 13.8324C1.97664 14.9287 3.97236 15.5085 6.0094 15.503C12.927 15.503 16.7061 9.86933 16.7061 4.98325C16.7061 4.82305 16.7019 4.66285 16.6943 4.50646C17.4278 3.98469 18.0624 3.33629 18.5683 2.5917Z" fill="white"/>
</svg>
